<?xml version="1.0" encoding="UTF-8"?>
<svg width="90px" height="90px" viewBox="0 0 90 90" version="1.1" xmlns="http://www.w3.org/2000/svg" xmlns:xlink="http://www.w3.org/1999/xlink">
    <!-- Generator: Sketch 57.1 (83088) - https://sketch.com -->
    <title>Group</title>
    <desc>Created with Sketch.</desc>
    <g id="Page-1" stroke="#718096" stroke-width="1" fill="#718096" fill-rule="evenodd">
        <g id="Group">
            <path d="M33.438,73.461 C32.723,70.657 32.125,67.614 31.649,64.42 C28.214,64.371 25.444,61.686 25.217,58.297 C22.155,57.83 19.237,57.25 16.539,56.561 C17.463,61.137 18.919,65.394 20.809,69.191 C24.606,71.081 28.863,72.537 33.438,73.461 Z" id="Path"></path>
            <path d="M66.727,16.484 C62.684,10.281 57.345,5.81 51.326,3.943 C53.023,6.266 54.47,9.509 55.664,13.356 C59.576,14.047 63.289,15.106 66.727,16.484 Z" id="Path"></path>
            <path d="M51.429,30.41 C52.033,28.431 53.526,26.86 55.461,26.16 C54.898,22.367 54.176,18.952 53.346,15.979 C50.648,15.594 47.857,15.391 45,15.391 C42.143,15.391 39.352,15.595 36.653,15.979 C35.504,20.094 34.567,25.064 33.964,30.7 C37.604,30.41 41.32,30.26 45,30.26 C47.138,30.26 49.288,30.311 51.429,30.41 Z" id="Path"></path>
            <path d="M64.182,31.615 C67.462,32.097 70.587,32.706 73.461,33.439 C72.537,28.863 71.081,24.606 69.191,20.809 C65.394,18.919 61.137,17.463 56.561,16.539 C57.294,19.413 57.903,22.538 58.385,25.818 C61.445,26.147 63.852,28.555 64.182,31.615 Z" id="Path"></path>
            <path d="M71.372,18.628 C76.231,21.181 80.366,24.414 83.492,28.141 C79.253,18.5 71.5,10.747 61.859,6.508 C65.586,9.634 68.819,13.769 71.372,18.628 Z" id="Path"></path>
            <path d="M19.176,25.779 C19.013,25.779 18.859,25.745 18.699,25.731 C17.808,28.171 17.082,30.75 16.539,33.439 C20.887,32.33 25.811,31.503 30.971,30.972 C31.502,25.812 32.329,20.888 33.438,16.54 C30.209,17.192 27.14,18.108 24.277,19.256 C24.376,19.66 24.444,20.076 24.444,20.511 C24.445,23.42 22.086,25.779 19.176,25.779 Z" id="Path"></path>
            <path d="M74.609,45 C74.609,42.143 74.405,39.352 74.021,36.653 C71.049,35.823 67.634,35.102 63.841,34.538 C63.142,36.473 61.569,37.967 59.59,38.57 C59.689,40.711 59.74,42.862 59.74,45 C59.74,48.679 59.589,52.396 59.299,56.035 C64.936,55.432 69.906,54.495 74.021,53.346 C74.405,50.648 74.609,47.858 74.609,45 Z" id="Path"></path>
            <path d="M15.391,45 C15.391,47.857 15.595,50.648 15.979,53.347 C18.82,54.14 22.07,54.832 25.665,55.384 C26.481,53.384 28.248,51.874 30.409,51.428 C30.31,49.287 30.259,47.137 30.259,45 C30.259,41.32 30.409,37.604 30.7,33.964 C25.064,34.567 20.094,35.504 15.979,36.653 C15.595,39.352 15.391,42.143 15.391,45 Z" id="Path"></path>
            <path d="M87.033,45 C87.033,42.454 83.416,39.776 77.13,37.618 C77.418,40.021 77.576,42.485 77.576,45 C77.576,47.514 77.419,49.978 77.13,52.381 C83.415,50.224 87.033,47.546 87.033,45 Z" id="Path"></path>
            <path d="M73.515,23.272 C74.894,26.71 75.952,30.423 76.644,34.335 C80.491,35.529 83.734,36.977 86.057,38.673 C84.189,32.654 79.719,27.315 73.515,23.272 Z" id="Path"></path>
            <path d="M38.06,59.564 C37.555,61.438 36.256,62.974 34.531,63.788 C35.095,67.602 35.819,71.035 36.653,74.021 C39.352,74.406 42.142,74.609 45,74.609 C47.857,74.609 50.648,74.405 53.346,74.021 C54.495,69.906 55.432,64.936 56.034,59.3 C52.395,59.59 48.679,59.74 45,59.74 C42.692,59.74 40.37,59.679 38.06,59.564 Z" id="Path"></path>
            <path d="M70.201,65.301 C70.436,65.301 70.661,65.34 70.888,65.37 C71.97,62.609 72.836,59.658 73.461,56.562 C69.112,57.671 64.188,58.498 59.028,59.029 C58.497,64.189 57.67,69.113 56.561,73.462 C59.511,72.866 62.333,72.057 64.98,71.045 C64.966,70.886 64.932,70.733 64.932,70.57 C64.932,67.66 67.291,65.301 70.201,65.301 Z" id="Path"></path>
            <path d="M56.772,45 C56.772,42.867 56.723,40.794 56.636,38.779 C53.853,38.33 51.67,36.147 51.221,33.363 C49.206,33.275 47.134,33.227 45.001,33.227 C41.019,33.227 37.235,33.389 33.682,33.681 C33.39,37.234 33.227,41.018 33.227,45 C33.227,47.238 33.279,49.412 33.376,51.521 C35.813,52.148 37.706,54.119 38.187,56.612 C40.386,56.717 42.66,56.773 45.001,56.773 C48.982,56.773 52.766,56.611 56.319,56.319 C56.61,52.766 56.772,48.982 56.772,45 Z" id="Path"></path>
            <path d="M66.05,73.781 C62.802,75.031 59.32,75.999 55.664,76.645 C54.47,80.492 53.023,83.735 51.326,86.058 C57.149,84.251 62.333,80.006 66.325,74.115 C66.228,74.008 66.138,73.895 66.05,73.781 Z" id="Path"></path>
            <path d="M75.238,69.106 C75.374,69.574 75.47,70.058 75.47,70.57 C75.47,73.48 73.111,75.839 70.201,75.839 C69.724,75.839 69.271,75.755 68.831,75.636 C66.783,78.673 64.441,81.326 61.86,83.492 C71.5,79.253 79.253,71.5 83.492,61.86 C81.231,64.555 78.445,66.995 75.238,69.106 Z" id="Path"></path>
            <path d="M45,77.576 C42.485,77.576 40.022,77.419 37.618,77.13 C39.776,83.415 42.454,87.032 45,87.032 C47.546,87.032 50.223,83.415 52.381,77.13 C49.978,77.419 47.514,77.576 45,77.576 Z" id="Path"></path>
            <path d="M23.273,73.516 C27.316,79.719 32.655,84.189 38.674,86.057 C36.978,83.734 35.53,80.491 34.335,76.644 C30.424,75.953 26.711,74.894 23.273,73.516 Z" id="Path"></path>
            <path d="M73.585,66.562 C73.611,66.585 73.639,66.605 73.665,66.628 C79.79,62.597 84.205,57.297 86.057,51.326 C83.734,53.023 80.491,54.47 76.644,55.664 C75.964,59.513 74.931,63.171 73.585,66.562 Z" id="Path"></path>
            <path d="M18.628,71.372 C13.769,68.818 9.634,65.586 6.508,61.859 C10.747,71.5 18.5,79.253 28.14,83.492 C24.414,80.366 21.181,76.231 18.628,71.372 Z" id="Path"></path>
            <path d="M12.87,52.382 C12.581,49.979 12.424,47.515 12.424,45.001 C12.424,42.486 12.581,40.022 12.87,37.619 C6.585,39.777 2.967,42.454 2.967,45 C2.967,47.546 6.585,50.224 12.87,52.382 Z" id="Path"></path>
            <path d="M16.485,66.728 C15.106,63.289 14.047,59.576 13.356,55.665 C9.509,54.471 6.266,53.023 3.943,51.327 C5.811,57.346 10.281,62.686 16.485,66.728 Z" id="Path"></path>
            <path d="M34.335,13.356 C35.53,9.509 36.977,6.266 38.674,3.943 C32.655,5.811 27.316,10.281 23.273,16.484 C26.711,15.106 30.424,14.047 34.335,13.356 Z" id="Path"></path>
            <path d="M13.999,21.421 C13.947,21.124 13.907,20.822 13.907,20.51 C13.907,17.6 16.266,15.241 19.176,15.241 C19.629,15.241 20.061,15.316 20.48,15.423 C22.685,11.94 25.264,8.921 28.141,6.508 C18.5,10.747 10.747,18.5 6.508,28.141 C8.586,25.664 11.115,23.409 13.999,21.421 Z" id="Path"></path>
            <path d="M15.958,24.655 C15.726,24.474 15.507,24.28 15.308,24.063 C9.713,28 5.691,33.041 3.943,38.674 C6.265,36.978 9.509,35.53 13.356,34.336 C13.956,30.941 14.835,27.7 15.958,24.655 Z" id="Path"></path>
            <path d="M45,12.424 C47.514,12.424 49.977,12.581 52.38,12.87 C50.222,6.585 47.545,2.968 45,2.968 C42.454,2.968 39.777,6.585 37.619,12.87 C40.022,12.581 42.486,12.424 45,12.424 Z" id="Path"></path>
            <path d="M45,0 C20.187,0 0,20.187 0,45 C0,69.813 20.187,90 45,90 C69.813,90 90,69.813 90,45 C90,20.187 69.813,0 45,0 Z M77.13,37.619 C83.415,39.777 87.033,42.455 87.033,45.001 C87.033,47.547 83.416,50.224 77.13,52.382 C77.418,49.979 77.576,47.515 77.576,45.001 C77.576,42.486 77.419,40.022 77.13,37.619 Z M76.644,34.335 C75.953,30.423 74.894,26.711 73.515,23.272 C79.718,27.315 84.188,32.654 86.056,38.673 C83.734,36.977 80.491,35.53 76.644,34.335 Z M64.979,71.045 C62.332,72.057 59.51,72.866 56.56,73.462 C57.669,69.114 58.496,64.19 59.027,59.029 C64.187,58.498 69.111,57.671 73.46,56.562 C72.835,59.658 71.969,62.61 70.887,65.37 C70.66,65.34 70.435,65.301 70.2,65.301 C67.29,65.301 64.931,67.66 64.931,70.57 C64.932,70.732 64.965,70.886 64.979,71.045 Z M45,56.773 C42.659,56.773 40.385,56.717 38.186,56.612 C37.705,54.119 35.813,52.148 33.375,51.521 C33.279,49.413 33.226,47.238 33.226,45 C33.226,41.018 33.388,37.234 33.681,33.681 C37.234,33.389 41.018,33.227 45,33.227 C47.133,33.227 49.205,33.276 51.22,33.363 C51.669,36.147 53.852,38.33 56.635,38.779 C56.723,40.794 56.771,42.867 56.771,45 C56.771,48.981 56.609,52.766 56.317,56.318 C52.765,56.611 48.981,56.773 45,56.773 Z M56.035,59.3 C55.433,64.937 54.495,69.906 53.347,74.021 C50.648,74.406 47.858,74.609 45.001,74.609 C42.144,74.609 39.353,74.405 36.654,74.021 C35.82,71.035 35.096,67.602 34.532,63.788 C36.257,62.974 37.556,61.439 38.061,59.564 C40.371,59.679 42.693,59.74 45.001,59.74 C48.679,59.74 52.395,59.59 56.035,59.3 Z M24.278,19.255 C27.14,18.107 30.21,17.191 33.439,16.539 C32.33,20.887 31.503,25.811 30.972,30.971 C25.812,31.502 20.888,32.329 16.54,33.438 C17.083,30.749 17.809,28.171 18.7,25.73 C18.86,25.744 19.013,25.778 19.177,25.778 C22.087,25.778 24.446,23.419 24.446,20.509 C24.445,20.075 24.377,19.659 24.278,19.255 Z M30.7,33.965 C30.41,37.605 30.259,41.321 30.259,45.001 C30.259,47.138 30.31,49.288 30.409,51.429 C28.248,51.875 26.481,53.385 25.665,55.385 C22.071,54.833 18.82,54.141 15.979,53.348 C15.594,50.649 15.391,47.859 15.391,45.001 C15.391,42.144 15.595,39.353 15.979,36.654 C20.094,35.504 25.064,34.567 30.7,33.965 Z M25.218,58.297 C25.445,61.686 28.215,64.371 31.65,64.42 C32.126,67.613 32.724,70.657 33.439,73.461 C28.863,72.537 24.606,71.081 20.81,69.192 C18.92,65.395 17.464,61.138 16.54,56.562 C19.237,57.25 22.156,57.83 25.218,58.297 Z M33.964,30.7 C34.566,25.063 35.504,20.093 36.653,15.979 C39.352,15.594 42.142,15.391 45,15.391 C47.857,15.391 50.648,15.595 53.346,15.979 C54.176,18.952 54.897,22.367 55.461,26.16 C53.526,26.859 52.033,28.431 51.429,30.41 C49.288,30.311 47.138,30.26 45,30.26 C41.32,30.26 37.604,30.41 33.964,30.7 Z M56.561,16.539 C61.137,17.463 65.394,18.919 69.191,20.809 C71.081,24.606 72.537,28.863 73.461,33.439 C70.587,32.706 67.462,32.097 64.182,31.615 C63.853,28.555 61.445,26.147 58.385,25.818 C57.902,22.538 57.293,19.413 56.561,16.539 Z M59.298,56.036 C59.588,52.396 59.739,48.68 59.739,45.001 C59.739,42.863 59.688,40.712 59.589,38.571 C61.568,37.968 63.141,36.474 63.84,34.539 C67.633,35.102 71.048,35.824 74.02,36.654 C74.405,39.353 74.608,42.144 74.608,45.001 C74.608,47.858 74.404,50.649 74.02,53.348 C69.906,54.496 64.935,55.433 59.298,56.036 Z M83.492,28.141 C80.366,24.415 76.231,21.182 71.372,18.628 C68.819,13.769 65.586,9.634 61.86,6.508 C71.5,10.747 79.253,18.5 83.492,28.141 Z M66.727,16.484 C63.288,15.105 59.575,14.047 55.664,13.355 C54.47,9.508 53.023,6.265 51.326,3.942 C57.345,5.81 62.685,10.281 66.727,16.484 Z M45,2.967 C47.546,2.967 50.223,6.584 52.38,12.869 C49.977,12.581 47.514,12.423 45,12.423 C42.485,12.423 40.022,12.58 37.619,12.869 C39.777,6.584 42.454,2.967 45,2.967 Z M38.674,3.943 C36.978,6.266 35.53,9.509 34.335,13.356 C30.424,14.047 26.711,15.106 23.273,16.484 C27.315,10.281 32.655,5.811 38.674,3.943 Z M28.14,6.508 C25.263,8.921 22.684,11.94 20.479,15.423 C20.06,15.316 19.628,15.241 19.175,15.241 C16.265,15.241 13.906,17.6 13.906,20.51 C13.906,20.822 13.946,21.124 13.998,21.421 C11.114,23.409 8.585,25.664 6.508,28.141 C10.747,18.5 18.5,10.747 28.14,6.508 Z M15.308,24.063 C15.507,24.28 15.726,24.474 15.958,24.655 C14.835,27.7 13.956,30.942 13.356,34.336 C9.509,35.53 6.266,36.978 3.943,38.674 C5.691,33.041 9.713,28 15.308,24.063 Z M12.87,37.619 C12.582,40.022 12.424,42.486 12.424,45.001 C12.424,47.515 12.581,49.979 12.87,52.382 C6.585,50.224 2.967,47.546 2.967,45 C2.967,42.454 6.585,39.777 12.87,37.619 Z M13.356,55.665 C14.047,59.577 15.106,63.29 16.485,66.728 C10.282,62.685 5.811,57.346 3.943,51.326 C6.266,53.023 9.509,54.471 13.356,55.665 Z M6.508,61.86 C9.634,65.586 13.769,68.819 18.628,71.373 C21.182,76.232 24.414,80.367 28.14,83.493 C18.5,79.253 10.747,71.5 6.508,61.86 Z M23.273,73.516 C26.711,74.895 30.424,75.953 34.335,76.644 C35.53,80.491 36.977,83.734 38.674,86.057 C32.655,84.189 27.315,79.719 23.273,73.516 Z M45,87.033 C42.454,87.033 39.777,83.416 37.618,77.131 C40.022,77.419 42.485,77.577 45,77.577 C47.514,77.577 49.977,77.42 52.381,77.131 C50.223,83.416 47.546,87.033 45,87.033 Z M51.326,86.057 C53.023,83.734 54.47,80.491 55.664,76.644 C59.32,75.998 62.803,75.03 66.05,73.78 C66.138,73.894 66.228,74.007 66.325,74.114 C62.333,80.005 57.149,84.251 51.326,86.057 Z M61.86,83.492 C64.441,81.327 66.784,78.674 68.831,75.636 C69.27,75.755 69.724,75.839 70.201,75.839 C73.111,75.839 75.47,73.48 75.47,70.57 C75.47,70.058 75.374,69.574 75.238,69.106 C78.445,66.996 81.231,64.555 83.492,61.86 C79.253,71.5 71.5,79.253 61.86,83.492 Z M73.664,66.628 C73.638,66.605 73.61,66.584 73.584,66.562 C74.93,63.171 75.963,59.513 76.643,55.665 C80.49,54.471 83.733,53.023 86.056,51.327 C84.204,57.297 79.789,62.597 73.664,66.628 Z" id="Shape" fill="#ffffff" fill-rule="nonzero"></path>
        </g>
    </g>
</svg>
