<?xml version="1.0" encoding="UTF-8"?>
<svg width="91px" height="91px" viewBox="0 0 91 91" version="1.1" xmlns="http://www.w3.org/2000/svg" xmlns:xlink="http://www.w3.org/1999/xlink">
    <!-- Generator: Sketch 57.1 (83088) - https://sketch.com -->
    <title>site-logo</title>
    <desc>Created with Sketch.</desc>
    <g id="Page-1" stroke="none" stroke-width="1" fill="none" fill-rule="evenodd">
        <g id="site-logo" fill="#ffffff" fill-rule="nonzero">
            <path d="M55.5401001,57.2610512 C54.9017677,58.2942925 53.8164253,58.888176 52.6775398,58.9359131 C51.2120056,63.327179 49.1450805,67.6408463 46.3819465,71.7690964 C46.8761787,72.4353409 47.1161422,73.2440949 47.0134925,74.0625992 C49.2070846,75.5485459 51.3045425,77.062172 53.1857108,78.581482 C53.2084578,78.5795747 53.2310294,78.5770341 53.2537001,78.5754853 C56.1224554,75.0081406 59.904415,71.6571046 64.0558165,68.961258 C65.9207381,67.7498704 67.8749922,66.7270737 69.8495482,65.8142243 C70.2565688,64.8065796 71.0533598,63.9421921 72.1002425,63.60952 C72.2683944,62.0677109 72.3896102,60.529419 72.4712752,58.9944382 C71.5326689,58.7583428 70.7789763,58.0327225 70.4898375,56.9351769 C65.6051865,57.6633987 60.557457,57.7706566 55.5401001,57.2610512 Z" id="Path"></path>
            <path d="M41.6755295,0.196578 C40.7068329,0.2867369 39.7422486,0.4058814 38.7830811,0.5578499 C39.309105,0.9021712 39.8280144,1.2920456 40.3445588,1.7053123 C40.4536744,1.6652999 40.5553246,1.6195345 40.6676446,1.5913086 C41.0019302,1.1208668 41.338501,0.6544228 41.6755295,0.196578 Z" id="Path"></path>
            <path d="M49.1396637,13.0622101 C52.7147636,12.9711209 56.2775154,13.1463795 59.7666779,13.5596485 C59.838852,13.3717995 59.9300652,13.1967335 60.0388642,13.0325394 C56.5826913,8.1320887 52.4496689,3.7359391 47.6314355,0.0370007 C46.8240472,0.0051351 46.0176583,-0.0073304 45.2121583,0.0042501 C44.58107,0.8143521 43.9603425,1.6827021 43.3386918,2.543263 C43.5677377,2.9818345 43.6316377,3.5148192 43.4583131,4.0837326 C43.4169007,4.2202005 43.3214647,4.3338089 43.2586442,4.462327 C44.9102059,6.2617226 46.4802171,8.3827991 47.8992692,10.8049135 C48.3267288,11.5316467 48.7393875,12.2844677 49.1396637,13.0622101 Z" id="Path"></path>
            <path d="M52.4352455,0.4868898 C56.2479591,3.8404083 59.5741424,7.6505079 62.4563751,11.7869014 C64.208641,11.77186 65.9181595,13.0243835 66.5476837,14.6897372 C67.5788879,14.9144267 68.6018905,15.1564807 69.6094742,15.4273604 C74.9516754,16.8591384 79.9421463,18.9243239 84.3200913,21.585369 C80.4889451,15.3052977 75.0702668,9.8730611 68.2359925,5.9604215 C63.2028732,3.0789433 57.8466377,1.2875795 52.4352455,0.4868898 Z" id="Path"></path>
            <path d="M14.5947838,23.3708534 C19.1261006,20.3327617 24.1489353,17.9867992 29.4376602,16.3086891 C30.0723228,14.736866 31.7563591,13.5764541 33.4888,13.5013752 C35.0063858,10.5322733 36.6378059,7.7019081 38.3491287,5.0427656 C38.1994591,4.6447935 38.1791725,4.18291 38.325737,3.6973906 C38.3382492,3.6562729 38.3715019,3.6237994 38.3860703,3.5833197 C37.1228447,2.6121211 35.843422,1.872654 34.5700531,1.4319926 C26.3797169,3.5402318 18.7901115,7.9349557 12.8262482,14.3329735 C12.5776444,17.4198742 12.783762,20.3566399 13.3488179,23.148016 C13.7826881,23.1118279 14.2068596,23.179966 14.5947838,23.3708534 Z" id="Path"></path>
            <path d="M26.4967556,47.5437164 C26.2719421,51.5367088 26.4011955,55.5365867 26.9850044,59.482933 C27.2941627,59.6011581 27.5955581,59.7568969 27.8876972,59.9572296 C30.3982811,57.5177574 33.1412353,55.179573 36.0555382,52.9799728 C35.9539566,52.6739502 35.8892403,52.358509 35.8735924,52.0351142 C35.4616013,51.8500861 35.0458298,51.670021 34.6405945,51.4755439 C32.042469,50.2334174 29.5912323,48.7866363 27.2809391,47.196083 C27.0316906,47.3413315 26.7716904,47.4630737 26.4967556,47.5437164 Z" id="Path"></path>
            <path d="M30.515377,19.861454 C30.170597,19.6647396 29.879776,19.4104214 29.6604805,19.1058712 C24.7652626,20.7144623 20.137085,22.9259377 15.9540348,25.7529488 C15.9688606,26.4470635 15.7955055,27.1936226 15.3951492,27.8929329 C15.2696609,28.1121254 15.1281604,28.3139458 14.9756565,28.5004578 C16.329752,31.8495407 18.2222443,34.9422684 20.6007938,37.7138482 C21.5980987,38.8756181 22.6894092,39.9742051 23.8368682,41.0292169 C24.0484656,40.9166147 24.2685432,40.8241998 24.4974174,40.7565881 C25.0320949,37.207821 25.7974796,33.6887895 26.7931671,30.2502328 C27.8250294,26.6892891 29.0908241,23.2158718 30.515377,19.861454 Z" id="Path"></path>
            <path d="M35.2346344,80.4844742 C37.1772881,78.7511215 38.9275856,76.9466477 40.5131836,75.087822 C40.0934753,74.4191895 39.9292412,73.630394 40.0726433,72.8466492 C36.5907822,70.780922 32.9304695,68.8594055 29.2520981,67.2052765 C29.1409645,67.3636932 29.0328636,67.5247955 28.9066315,67.6616593 C30.3329926,72.0910416 32.3894615,76.3991547 35.2346344,80.4844742 Z" id="Path"></path>
            <path d="M35.8160553,49.0389671 C36.1387177,49.1930313 36.4772263,49.3220024 36.8035011,49.4704666 C37.8985748,48.2800445 39.7044677,47.9535637 41.1675071,48.7911568 C41.3219756,48.8795891 41.4565658,48.9877091 41.5922736,49.0945854 C42.8407286,48.2799187 44.1015929,47.4825744 45.3852843,46.7235832 C47.0628012,45.7317161 48.7715605,44.8088455 50.4909056,43.9198723 C50.4505347,43.2541695 50.5929869,42.5698052 50.949333,41.9473763 C51.3990934,41.1617661 52.1086424,40.6264267 52.9048079,40.3602944 C52.8829459,36.1570893 52.4390143,32.0498124 51.615116,28.1779671 C50.6609648,23.6917115 49.2337569,19.5093003 47.4891585,15.8248959 C44.0163878,15.9972973 40.5456771,16.4179326 37.1369856,17.1025753 C36.9304388,17.1441002 36.7268103,17.1960373 36.5209005,17.2392731 C36.0642278,18.6204796 34.7902563,19.7282543 33.342201,20.1255112 C31.8175085,23.6278305 30.4710729,27.2677079 29.3880842,31.0020562 C28.4347914,34.2904511 27.6905573,37.647564 27.1751364,41.034668 C27.2032946,41.0498505 27.2333143,41.0570832 27.2612704,41.0730858 C28.6897696,41.8909073 29.319702,43.5517883 28.909458,45.0701294 C31.0709038,46.5485649 33.386116,47.8747025 35.8160553,49.0389671 Z" id="Path"></path>
            <path d="M50.426506,15.7420349 C52.0288543,19.3363953 53.3472099,23.3445892 54.2550239,27.6150894 C55.1297111,31.7256813 55.6066055,36.0885315 55.6144256,40.5556335 C55.6711082,40.5841865 55.7306823,40.6004028 55.7863922,40.6322975 C56.0181465,40.7649765 56.224659,40.9234199 56.41399,41.0963669 C60.6751404,39.2415047 64.9460754,37.763031 69.0843506,36.719944 C69.1478958,36.0350533 69.413887,35.3756943 69.9060516,34.8451424 C69.9513015,34.7964058 70.0058212,34.7622567 70.0533828,34.7169953 C70.0112075,34.5590363 69.9739989,34.3992119 69.9309158,34.2416688 C68.4511718,28.8033143 66.3282852,23.6358453 63.6533203,18.8244954 C62.1244507,18.7319394 60.671257,17.7065888 59.9814453,16.3067628 C56.8440704,15.9102383 53.6431808,15.7139187 50.426506,15.7420349 Z" id="Path"></path>
            <path d="M69.8961182,39.2979164 C65.8796997,40.2984695 61.7192231,41.7428093 57.5581169,43.5507164 C57.5876732,44.199604 57.4478111,44.8639297 57.1012115,45.4693451 C56.6770782,46.2101822 56.0211524,46.7244454 55.2815971,47.0056381 C55.250988,47.2963638 55.2377243,47.5854568 55.2023849,47.8766975 C55.0180969,49.3921966 54.7486267,50.9117775 54.4384193,52.4306335 C55.2382087,52.9432525 55.7679939,53.723587 55.9731636,54.59029 C60.9494629,55.0816383 65.950676,54.9435806 70.7645645,54.1592445 C71.1388473,53.3039283 71.7601547,52.558834 72.5490265,52.0742836 C72.423584,48.106041 72.0077591,44.1937294 71.3048935,40.3719444 C70.9283981,40.208313 70.5671845,39.9879303 70.2460404,39.6900253 C70.1146317,39.5681267 70.0058441,39.4325523 69.8961182,39.2979164 Z" id="Path"></path>
            <path d="M46.7632103,49.0488548 C45.4604607,49.8185882 44.1813622,50.6287613 42.9160423,51.4569092 C42.9319153,51.5917435 42.9358749,51.7264824 42.9361839,51.862896 C45.0797729,52.5618325 47.2772865,53.1193619 49.5007362,53.5813179 C50.0222549,52.7135963 50.8580894,52.1545296 51.7795257,51.9531212 C52.0817451,50.4841614 52.3444557,49.0149117 52.5217094,47.5490494 C52.5469665,47.3421364 52.5640258,47.1349755 52.5863571,46.9280014 C52.4789657,46.8799705 52.3686371,46.8441086 52.2643089,46.784378 C52.049675,46.661499 51.8533401,46.5191078 51.6750107,46.3614692 C50.0238495,47.2177963 48.3773041,48.0942459 46.7632103,49.0488548 Z" id="Path"></path>
            <path d="M45.5668602,12.1767406 C44.2107658,9.8685369 42.7354889,7.8549556 41.198307,6.1837139 C41.0677986,6.2202196 40.931755,6.207428 40.798336,6.2269363 C39.1201629,8.8154878 37.5153274,11.5674686 36.0250778,14.4606323 C36.0536995,14.4926204 36.0845108,14.5229015 36.1113395,14.5561485 L36.60437,14.4544429 C39.7474402,13.8243083 42.9428595,13.4071845 46.1441344,13.1978358 C45.952961,12.8516865 45.7630692,12.5105743 45.5668602,12.1767406 Z" id="Path"></path>
            <path d="M30.1089325,64.6357803 C34.0444374,66.3951568 37.967762,68.4485473 41.6948891,70.6724472 C42.3892174,70.3079376 43.2247734,70.1832428 44.0731545,70.3438873 C46.7416878,66.3766555 48.7348748,62.2312545 50.140976,58.0114555 C49.6255646,57.5391235 49.2718468,56.9361114 49.1041413,56.2821045 C46.6582757,55.7815743 44.2463799,55.1467667 41.8934899,54.3722534 C40.8388062,55.4193001 39.2172127,55.7130394 37.8382607,55.029026 C34.8917618,57.2423401 32.1286583,59.5948105 29.6160203,62.0522079 C29.9838982,62.8620987 30.1529465,63.7519684 30.1089325,64.6357803 Z" id="Path"></path>
            <path d="M54.5551338,83.3513412 C54.3848686,83.4467239 54.2397957,83.5690307 54.0481834,83.6378021 C53.6606597,83.7765121 53.2682876,83.8416977 52.8887024,83.8450851 C52.8488503,83.9130477 52.8017464,83.9807586 52.7627792,84.0488281 C51.6073455,86.0670395 50.8314361,88.0829162 50.5489044,90.0002365 C53.4654617,89.6898804 56.3419113,89.0986175 59.137989,88.2350006 C58.2801246,87.1063919 57.2109298,85.9057464 55.9595069,84.6630478 C55.52425,84.2313614 55.0312386,83.7901382 54.5551338,83.3513412 Z" id="Path"></path>
            <path d="M50.4780426,82.5956955 C50.4107742,82.4803925 50.3442345,82.364296 50.2978668,82.2352676 C50.035202,81.5 50.2093239,80.7185059 50.6551819,80.0541229 C49.0558815,78.794899 47.3317681,77.5443725 45.5130196,76.3106842 C44.7205735,76.7817535 43.720398,76.9433289 42.7190819,76.6791306 C41.1210556,78.5674134 39.3519287,80.3989029 37.4056168,82.1628418 C37.7051812,82.6534882 37.8119736,83.1926041 37.6936608,83.701828 C39.5498582,85.9582291 41.649479,88.1411056 44.0416756,90.2207489 C45.2969628,90.2689743 46.5500336,90.2637482 47.7995568,90.2074051 C48.0536576,87.7472763 48.9787713,85.2046356 50.4112168,82.7025528 C50.4316864,82.6668015 50.4573097,82.6314392 50.4780426,82.5956955 Z" id="Path"></path>
            <path d="M75.4319229,66.498558 C75.322876,67.4769363 74.8423385,68.4151916 74.0644607,69.0386428 C73.2799377,73.6660766 72.1381225,78.2892074 70.5816039,82.8504333 C76.340454,79.076744 81.3254775,73.9355545 84.9800643,67.5520248 C85.3340301,66.9337539 85.6672133,66.309494 85.9888152,65.6819686 C84.77153,65.404808 83.4863891,65.2879867 82.1525954,65.3155822 C80.0011063,65.3586731 77.7282944,65.7901077 75.4319229,66.498558 Z" id="Path"></path>
            <path d="M34.0580215,84.9903107 C34.0568923,84.9899369 34.0559387,84.9892578 34.0548095,84.9888764 C32.9263648,85.875351 31.7600211,86.7450944 30.5277137,87.5848771 C33.5142249,88.6637727 36.5628051,89.4094392 39.6289062,89.8322678 C38.1031608,88.3393174 36.7272338,86.7956314 35.4446372,85.2221222 C34.9987297,85.2316513 34.5275192,85.1650925 34.0580215,84.9903107 Z" id="Path"></path>
            <path d="M70.0001373,68.7112656 C68.4822311,69.4637986 66.9774322,70.2871781 65.5253524,71.2315216 C61.8172225,73.6391449 58.459053,76.5966721 55.8320846,79.7383957 C55.9168853,79.872879 55.9919624,80.0147095 56.0473251,80.1686554 C56.1623306,80.4906998 56.1887817,80.824585 56.1560592,81.1537781 C56.7398261,81.6850128 57.3379669,82.2181549 57.8660888,82.7422791 C59.4271545,84.2921677 60.7375106,85.8221207 61.7532119,87.2937928 C63.5174026,86.6267167 65.2560882,85.889763 66.9304809,85.0053101 C67.2263641,84.2303238 67.5131835,83.4537735 67.7864303,82.6741562 C69.2951431,78.3756638 70.4213256,74.0196838 71.2181472,69.6554947 C70.7195282,69.4852982 70.2983322,69.1566086 70.0001373,68.7112656 Z" id="Path"></path>
            <path d="M61.7853851,87.3379059 C61.7754364,87.3233338 61.7632599,87.3084259 61.7532119,87.2937927 C60.952156,87.5966644 60.157463,87.9182434 59.3406257,88.1746902 C60.161171,87.9164658 60.979332,87.643158 61.7853851,87.3379059 Z" id="Path"></path>
            <path d="M66.427269,17.4352627 C66.3582611,17.5576801 66.2915268,17.6815319 66.2050095,17.7908344 C68.905304,22.709217 71.0311585,27.9901428 72.538414,33.5246734 C72.5689011,33.6368064 72.5950241,33.7502097 72.6250305,33.8624725 C73.3861008,33.9378891 74.1437149,34.2472229 74.7631302,34.8221321 C74.9726792,35.0166092 75.1463165,35.2324829 75.3007126,35.4575195 C77.5481491,35.1359558 79.7244339,34.97015 81.7997284,34.9793281 C84.7620697,34.9918746 87.5280457,35.3542365 90.021637,36.1099166 C89.361847,32.8816833 88.3542405,29.730564 87.009903,26.7156276 C82.0237122,22.8040618 75.7795945,19.8815612 68.9085389,18.0386352 C68.0896759,17.8198509 67.2601547,17.6241493 66.427269,17.4352627 Z" id="Path"></path>
            <path d="M75.8731842,38.1034546 C75.7641754,38.673954 75.5178375,39.2174721 75.1016083,39.6658859 C74.8000565,39.9915313 74.4425278,40.2352333 74.0559082,40.4043121 C74.7095718,44.097332 75.106308,47.869606 75.2410736,51.6928291 C75.8189773,51.8986053 76.3059463,52.2996444 76.6405182,52.8665504 C81.9134445,51.3269271 86.8004685,48.8963546 90.9386902,45.4706192 C90.9527893,43.3470306 90.8186798,41.2316627 90.5367127,39.1387024 C87.9949265,38.1575928 85.0338135,37.6946755 81.7897645,37.6806297 C79.8995361,37.6733093 77.9190979,37.8195686 75.8731842,38.1034546 Z" id="Path"></path>
            <path d="M75.208107,58.3646698 C75.1270142,60.1883163 75.0086594,62.0161896 74.8091812,63.848587 C77.2888031,63.0991287 79.7509003,62.6624221 82.1024322,62.6142883 C83.8648223,62.5782776 85.5673904,62.7595215 87.1725082,63.1856842 C89.1819152,58.5975494 90.3622894,53.8182869 90.7742157,49.0293274 C86.6720428,52.0103645 81.9811935,54.1325684 76.9984665,55.540699 C76.7614517,56.6476936 76.1231079,57.6950493 75.208107,58.3646698 Z" id="Path"></path>
            <path d="M32.0451775,81.8346024 C32.1385651,81.5847931 32.294014,81.3738785 32.481781,81.1906052 C29.8471603,77.2468109 27.8739014,73.1179963 26.4733677,68.8713761 C25.6450443,68.9503174 24.786253,68.751709 23.992197,68.2579728 C22.2130642,70.5239106 20.673973,72.8394547 19.4457512,75.1788483 C18.5801144,76.8221894 17.8672142,78.4733582 17.3239956,80.1276551 C19.2023678,81.6530305 21.2213669,83.0532838 23.3894901,84.2945405 C24.7279415,85.0608064 26.0893593,85.7498475 27.4683685,86.3651658 C29.0949707,85.3184663 30.6069755,84.2208177 32.0566787,83.0969087 C31.9133797,82.6767654 31.893898,82.2414322 32.0451775,81.8346024 Z" id="Path"></path>
            <path d="M9.9868288,26.8550129 C10.0358953,26.2766914 10.2063236,25.6766644 10.5315847,25.1085262 C10.6414737,24.9165821 10.7662468,24.7406883 10.8971071,24.5736599 C10.3825855,22.3595276 10.0393362,20.0766811 9.9947147,17.6851978 C8.7873029,19.2649402 7.6608762,20.9327373 6.6459512,22.7055225 C4.1690044,27.0320434 2.5007691,31.5979004 1.568941,36.2315101 C3.2604326,33.7145995 5.1768378,31.4099731 7.2822379,29.3185806 C8.1490078,28.4574089 9.0589371,27.6448822 9.9868288,26.8550129 Z" id="Path"></path>
            <path d="M22.1730137,66.2223358 C21.8558388,65.582283 21.661211,64.8874435 21.6053276,64.1769485 C14.7186222,61.8353881 8.3606415,60.7947006 3.9736118,62.014122 C6.4145283,68.0745697 10.1758876,73.632019 15.1299934,78.2186355 C15.6614437,76.7777633 16.3058509,75.3446578 17.0541057,73.9213867 C18.4263153,71.310051 20.1669598,68.7345352 22.1730137,66.2223358 Z" id="Path"></path>
            <path d="M22.2193661,61.2347031 C22.7191754,60.3616867 23.445055,59.7703324 24.2596131,59.4579697 C23.6923676,55.418087 23.5740548,51.3326187 23.8122826,47.2574654 C23.7884941,47.2445183 23.7629033,47.2384758 23.7393036,47.2249642 C22.270895,46.3842965 21.6372872,44.6523171 22.1192455,43.1007996 C20.8586864,41.9478188 19.6469459,40.7560769 18.5522308,39.4804383 C16.0536499,36.5724946 14.047409,33.342289 12.5854168,29.8520852 C12.1015682,29.8938218 11.6245909,29.8183175 11.201602,29.5761529 C11.1612883,29.553074 11.1310015,29.5190583 11.0925856,29.4938355 C10.4500809,30.0621834 9.7989121,30.6209946 9.1896735,31.2261353 C5.786109,34.6087456 2.9040595,38.5770607 0.7298537,43.1523514 C0.4907308,48.7264099 1.286862,54.2761193 3.048164,59.5172577 C8.0120245,58.0969772 14.8234545,59.0740814 22.1058956,61.4883499 C22.1471348,61.4050369 22.1729755,61.3157425 22.2193661,61.2347031 Z" id="Path"></path>
        </g>
    </g>
</svg>
