<?xml version="1.0" encoding="UTF-8"?>
<svg width="665px" height="62px" viewBox="0 0 665 62" version="1.1" xmlns="http://www.w3.org/2000/svg" xmlns:xlink="http://www.w3.org/1999/xlink">
    <title>Climatescape Logo</title>
    <g id="CS-logo-in-color-copy" stroke="none" stroke-width="1" fill="none" fill-rule="evenodd">
        <path d="M91,32.1155248 L91,31.9994999 C91,20.5130385 99.6775146,11 111.757084,11 C119.203186,11 123.660737,13.6095592 127.764434,17.4383797 L124.597945,20.8031007 C121.139274,17.5544045 117.26912,15.2339073 111.698445,15.2339073 C102.609449,15.2339073 95.8083723,22.5444738 95.8083723,31.8844752 L95.8083723,31.9994999 C95.8083723,41.3975138 102.668088,48.7650925 111.698445,48.7650925 C117.327759,48.7650925 121.021996,46.6186326 124.950788,42.905837 L128,45.864471 C123.719376,50.1573909 119.028281,53 111.581168,53 C99.7371642,53 91,43.7760234 91,32.1155248" id="Fill-1" fill="#000000"></path>
        <polygon id="Fill-3" fill="#000000" points="147 12 151.509678 12 151.509678 48.7231705 174 48.7231705 174 53 147 53"></polygon>
        <polygon id="Fill-5" fill="#000000" points="193 53 198 53 198 12 193 12"></polygon>
        <polygon id="Fill-7" fill="#000000" points="220 12 224.656956 12 239.501004 34.3738269 254.344048 12 259 12 259 53 254.40226 53 254.40226 19.7901919 239.558212 41.7540087 239.325364 41.7540087 224.48232 19.8477549 224.48232 53 220 53"></polygon>
        <path d="M307.599031,37.0541724 L298.442911,16.3506163 L289.229205,37.0541724 L307.599031,37.0541724 Z M296.369827,11 L300.631166,11 L319,52 L314.106211,52 L309.384187,41.2416112 L287.444049,41.2416112 L282.665432,52 L278,52 L296.369827,11 Z" id="Fill-8" fill="#000000"></path>
        <polygon id="Fill-9" fill="#000000" points="342.672727 16.274915 329 16.274915 329 12 361 12 361 16.274915 347.327273 16.274915 347.327273 53 342.672727 53"></polygon>
        <polygon id="Fill-10" fill="#000000" points="380 12 409.706448 12 409.706448 16.2172467 384.638121 16.2172467 384.638121 30.2151531 407.06448 30.2151531 407.06448 34.4323998 384.638121 34.4323998 384.638121 48.7827533 410 48.7827533 410 53 380 53"></polygon>
        <path d="M427,46.4665102 L429.800092,43.0830959 C433.970672,46.9331881 437.971789,48.8582342 443.514828,48.8582342 C448.885448,48.8582342 452.429407,45.9425034 452.429407,41.917407 L452.429407,41.7997318 C452.429407,38.0089801 450.428356,35.8495893 442.02808,34.0412127 C432.828763,31.9994971 428.600053,28.9670969 428.600053,22.2586029 L428.600053,22.1409277 C428.600053,15.7251131 434.143092,11 441.742356,11 C447.571119,11 451.742684,12.6917072 455.799961,16.0167868 L453.171303,19.5752053 C449.456895,16.4824589 445.742487,15.1407601 441.629052,15.1407601 C436.427896,15.1407601 433.113501,18.0585024 433.113501,21.7335904 L433.113501,21.8492541 C433.113501,25.700352 435.171697,27.858737 443.971986,29.7827774 C452.885579,31.767164 457,35.0912378 457,41.333054 L457,41.4507292 C457,48.449891 451.285527,53 443.342409,53 C436.999343,53 431.800158,50.841615 427,46.4665102" id="Fill-11" fill="#000000"></path>
        <path d="M475,32.1155248 L475,31.9994999 C475,20.5130385 483.677515,11 495.757084,11 C503.203186,11 507.660737,13.6095592 511.764434,17.4383797 L508.597945,20.8031007 C505.139274,17.5544045 501.26912,15.2339073 495.698445,15.2339073 C486.609449,15.2339073 479.808372,22.5444738 479.808372,31.8844752 L479.808372,31.9994999 C479.808372,41.3975138 486.668088,48.7650925 495.698445,48.7650925 C501.327759,48.7650925 505.021996,46.6186326 508.950788,42.905837 L512,45.864471 C507.719376,50.1573909 503.028281,53 495.581168,53 C483.737164,53 475,43.7760234 475,32.1155248" id="Fill-12" fill="#000000"></path>
        <path d="M556.599031,37.0541724 L547.442911,16.3506163 L538.229205,37.0541724 L556.599031,37.0541724 Z M545.369827,11 L549.631166,11 L568,52 L563.106211,52 L558.384187,41.2416112 L536.444049,41.2416112 L531.665432,52 L527,52 L545.369827,11 Z" id="Fill-13" fill="#000000"></path>
        <path d="M601.427443,34.3152541 C608.069102,34.3152541 612.420533,30.6837361 612.420533,25.2950319 L612.420533,25.1778862 C612.420533,19.320599 608.126357,16.2758196 601.656466,16.2758196 L591.523198,16.2758196 L591.523198,34.3152541 L601.427443,34.3152541 Z M587,12 L602,12 C611.046397,12 617,16.9191113 617,25.0021675 L617,25.1203232 C617,33.9638168 609.786772,38.5335107 601.255676,38.5335107 L591.523198,38.5335107 L591.523198,53 L587,53 L587,12 Z" id="Fill-14" fill="#000000"></path>
        <polygon id="Fill-15" fill="#000000" points="635 12 664.706448 12 664.706448 16.2172467 639.638121 16.2172467 639.638121 30.2151531 662.06448 30.2151531 662.06448 34.4323998 639.638121 34.4323998 639.638121 48.7827533 665 48.7827533 665 53 635 53"></polygon>
        <path d="M41,1.58716061 L1.586018,41 C0.764810927,38.6350911 0.22162697,36.137589 0,33.5490527 L33.5448249,0 C36.1341007,0.22461687 38.6323512,0.765874261 41,1.58716061" id="Fill-16" fill="#00BF7F"></path>
        <path d="M21,60.4790081 L60.4812969,21 C61.2874851,23.4100644 61.8066743,25.9546858 62,28.5890118 L28.5865396,62 C25.9537224,61.80564 23.4115888,61.2863498 21,60.4790081" id="Fill-17" fill="#3B185E"></path>
        <path d="M6.75837805,51 C5.32518322,49.3448622 4.06337043,47.5303258 3,45.5994987 L45.5969557,3 C47.5312676,4.06466165 49.339298,5.32481203 51,6.75639098 L6.75837805,51 Z" id="Fill-18" fill="#184AC6"></path>
        <path d="M0,27 C1.96323032,13.0213918 13.0178209,1.96315651 27,0 L0,27 Z" id="Fill-19" fill="#00EAA2"></path>
        <path d="M16.4588353,59 C14.5080321,57.9526141 12.6777108,56.7033829 11,55.2814285 L55.2821285,11 C56.7058233,12.6790309 57.9508032,14.5066842 59,16.4608674 L16.4588353,59 Z" id="Fill-20" fill="#001E7C"></path>
        <path d="M62,36 C59.8933241,49.343132 49.3539455,59.8921893 36,62 L62,36 Z" id="Fill-21" fill="#510038"></path>
    </g>
</svg>
