<?xml version="1.0" encoding="UTF-8"?>
<svg width="62px" height="62px" viewBox="0 0 62 62" version="1.1" xmlns="http://www.w3.org/2000/svg" xmlns:xlink="http://www.w3.org/1999/xlink">
    <title>Climatescape Logo</title>
    <g id="CS-logo-in-color-copy" stroke="none" stroke-width="1" fill="none" fill-rule="evenodd">
        <path d="M41,1.58716061 L1.586018,41 C0.764810927,38.6350911 0.22162697,36.137589 0,33.5490527 L33.5448249,0 C36.1341007,0.22461687 38.6323512,0.765874261 41,1.58716061" id="Fill-16" fill="#00BF7F"></path>
        <path d="M21,60.4790081 L60.4812969,21 C61.2874851,23.4100644 61.8066743,25.9546858 62,28.5890118 L28.5865396,62 C25.9537224,61.80564 23.4115888,61.2863498 21,60.4790081" id="Fill-17" fill="#3B185E"></path>
        <path d="M6.75837805,51 C5.32518322,49.3448622 4.06337043,47.5303258 3,45.5994987 L45.5969557,3 C47.5312676,4.06466165 49.339298,5.32481203 51,6.75639098 L6.75837805,51 Z" id="Fill-18" fill="#184AC6"></path>
        <path d="M0,27 C1.96323032,13.0213918 13.0178209,1.96315651 27,0 L0,27 Z" id="Fill-19" fill="#00EAA2"></path>
        <path d="M16.4588353,59 C14.5080321,57.9526141 12.6777108,56.7033829 11,55.2814285 L55.2821285,11 C56.7058233,12.6790309 57.9508032,14.5066842 59,16.4608674 L16.4588353,59 Z" id="Fill-20" fill="#001E7C"></path>
        <path d="M62,36 C59.8933241,49.343132 49.3539455,59.8921893 36,62 L62,36 Z" id="Fill-21" fill="#510038"></path>
    </g>
</svg>
